<svg xmlns="http://www.w3.org/2000/svg" version="1.1" xmlns:xlink="http://www.w3.org/1999/xlink" xmlns:svgjs="http://svgjs.dev/svgjs" width="1000" height="1000" viewBox="0 0 1000 1000"><rect width="1000" height="1000" fill="#ffffff"></rect><g transform="matrix(0.7,0,0,0.7,149.57575757575756,282.1265587044535)"><svg viewBox="0 0 396 247" data-background-color="#ffffff" preserveAspectRatio="xMidYMid meet" height="623" width="1000" xmlns="http://www.w3.org/2000/svg" xmlns:xlink="http://www.w3.org/1999/xlink"><g id="tight-bounds" transform="matrix(1,0,0,1,0.2400000000000091,-0.09999999999999432)"><svg viewBox="0 0 395.52 247.2" height="247.2" width="395.52"><g><svg></svg></g><g><svg viewBox="0 0 395.52 247.2" height="247.2" width="395.52"><g transform="matrix(1,0,0,1,75.54432,108.4061384423134)"><svg viewBox="0 0 244.43135999999998 30.387723115373173" height="30.387723115373173" width="244.43135999999998"><g><svg viewBox="0 0 244.43135999999998 30.387723115373173" height="30.387723115373173" width="244.43135999999998"><g><svg viewBox="0 0 301.54237050371137 37.487767782415695" height="30.387723115373173" width="244.43135999999998"><g transform="matrix(1,0,0,1,0,5.181015663126917)"><svg viewBox="0 0 244.43135999999998 27.12573645616186" height="27.12573645616186" width="244.43135999999998"><g><svg viewBox="0 0 244.43135999999998 27.12573645616186" height="27.12573645616186" width="244.43135999999998"><g><svg viewBox="0 0 244.43135999999998 27.12573645616186" height="27.12573645616186" width="244.43135999999998"><g transform="matrix(1,0,0,1,0,0)"><svg width="244.43135999999998" viewBox="2.3 -36.2 407.71 45.25" height="27.12573645616186" data-palette-color="#0063db"><path d="M30.7-3.1L30.75-2.75Q26.4 0.4 19.85 0.4L19.85 0.4Q11.95 0.4 7.13-4.25 2.3-8.9 2.3-16.9L2.3-16.9Q2.3-24.65 7.18-29.48 12.05-34.3 19.55-34.3L19.55-34.3Q25.4-34.3 29.35-32.05L29.35-32.05 29.35-26.75Q25.05-29.45 19.75-29.45L19.75-29.45Q14.35-29.45 11.03-26 7.7-22.55 7.7-16.9L7.7-16.9Q7.7-11.1 10.98-7.75 14.25-4.4 20-4.4L20-4.4Q23-4.4 25.7-5.5L25.7-5.5 25.7-14.8 18.85-14.8 18.85-19.25 30.75-19.25 30.75-3.1 30.7-3.1ZM57.05-22.03Q60.2-18.35 60.2-12.65 60.2-6.95 56.97-3.25 53.75 0.45 48.1 0.45L48.1 0.45Q42.5 0.45 39.3-3.2 36.1-6.85 36.1-12.45L36.1-12.45Q36.1-18.15 39.4-21.93 42.7-25.7 48.1-25.7L48.1-25.7Q53.9-25.7 57.05-22.03ZM41.2-12.6L41.2-12.6Q41.2-8.85 43.05-6.28 44.9-3.7 48.1-3.7L48.1-3.7Q51.5-3.7 53.27-6.2 55.05-8.7 55.05-12.55L55.05-12.55Q55.05-16.5 53.35-19.03 51.65-21.55 48.05-21.55L48.05-21.55Q44.8-21.55 43-18.98 41.2-16.4 41.2-12.6ZM85.25-22.03Q88.4-18.35 88.4-12.65 88.4-6.95 85.17-3.25 81.95 0.45 76.3 0.45L76.3 0.45Q70.7 0.45 67.5-3.2 64.3-6.85 64.3-12.45L64.3-12.45Q64.3-18.15 67.6-21.93 70.9-25.7 76.3-25.7L76.3-25.7Q82.1-25.7 85.25-22.03ZM69.4-12.6L69.4-12.6Q69.4-8.85 71.25-6.28 73.1-3.7 76.3-3.7L76.3-3.7Q79.7-3.7 81.47-6.2 83.25-8.7 83.25-12.55L83.25-12.55Q83.25-16.5 81.55-19.03 79.85-21.55 76.25-21.55L76.25-21.55Q73-21.55 71.2-18.98 69.4-16.4 69.4-12.6ZM97.54-12.45L97.54-12.45Q97.54-8.65 99.42-6.3 101.29-3.95 104.14-3.95L104.14-3.95Q107.04-3.95 109.04-6.15 111.04-8.35 111.04-12.85L111.04-12.85Q111.04-17.2 108.97-19.3 106.89-21.4 104.29-21.4L104.29-21.4Q101.34-21.4 99.44-19.07 97.54-16.75 97.54-12.45ZM115.99-35.35L115.99 0 111.04 0 111.04-3.85Q108.39 0.35 103.29 0.35L103.29 0.35Q98.29 0.35 95.39-3.43 92.49-7.2 92.49-12.55L92.49-12.55Q92.49-18.5 95.54-22.1 98.59-25.7 103.39-25.7L103.39-25.7Q108.34-25.7 111.04-21.5L111.04-21.5 111.04-35.35 115.99-35.35ZM128.04-35.35L128.04 0 123.09 0 123.09-35.35 128.04-35.35ZM140.29-25.35L140.29 0 135.34 0 135.34-25.35 140.29-25.35ZM140.89-33.1L140.89-33.1Q140.89-31.85 139.99-30.95 139.09-30.05 137.79-30.05 136.49-30.05 135.61-30.93 134.74-31.8 134.74-33.1 134.74-34.4 135.61-35.3 136.49-36.2 137.79-36.2 139.09-36.2 139.99-35.3 140.89-34.4 140.89-33.1ZM159.74-25.35L159.74-21.55 154.39-21.55 154.39 0 149.49 0 149.49-21.55 145.44-21.55 145.44-25.35 149.49-25.35 149.49-27.3Q149.49-31.25 151.61-33.52 153.74-35.8 157.59-35.8L157.59-35.8Q158.99-35.8 160.44-35.4L160.44-35.4 160.44-31.1Q159.29-31.6 158.04-31.6L158.04-31.6Q154.39-31.6 154.39-27.25L154.39-27.25 154.39-25.35 159.74-25.35ZM182.98-5.75L182.98-1.35Q180.18 0.25 175.58 0.25L175.58 0.25Q169.68 0.25 166.18-3.3 162.68-6.85 162.68-12.6L162.68-12.6Q162.68-18.7 165.88-22.18 169.08-25.65 174.03-25.65L174.03-25.65Q178.88-25.65 181.73-22.63 184.58-19.6 184.58-13.9L184.58-13.9Q184.58-12.35 184.28-10.65L184.28-10.65 167.63-10.65Q168.13-7.35 170.43-5.6 172.73-3.85 176.23-3.85L176.23-3.85Q180.28-3.85 182.98-5.75L182.98-5.75ZM174.13-21.6L174.13-21.6Q171.63-21.6 169.83-19.78 168.03-17.95 167.58-14.5L167.58-14.5 179.83-14.5 179.83-15.4Q179.73-18.25 178.28-19.93 176.83-21.6 174.13-21.6ZM212.13-11.95L212.13-11.95 207.33-11.95 207.33 0 202.18 0 202.18-33.7 211.83-33.7Q217.63-33.7 221.03-30.63 224.43-27.55 224.43-22.75 224.43-17.95 221-14.95 217.58-11.95 212.13-11.95ZM211.63-29.45L211.63-29.45 207.33-29.45 207.33-16.2 211.73-16.2Q215.38-16.2 217.3-18 219.23-19.8 219.23-22.75L219.23-22.75Q219.23-25.85 217.28-27.65 215.33-29.45 211.63-29.45ZM250.43-17L250.43 0 245.53 0 245.53-16Q245.53-18.6 244.2-20.03 242.88-21.45 240.73-21.45L240.73-21.45Q238.23-21.45 236.3-19.55 234.38-17.65 234.38-13.75L234.38-13.75 234.38 0 229.48 0 229.48-35.35 234.38-35.35 234.38-21Q236.53-25.7 242.23-25.7L242.23-25.7Q245.93-25.7 248.18-23.4 250.43-21.1 250.43-17L250.43-17ZM265.22-3.65L265.22-3.65Q267.62-3.65 269-4.98 270.37-6.3 270.37-8.45L270.37-8.45 270.37-11.3 266.57-11.3Q263.77-11.3 262.35-10.2 260.92-9.1 260.92-7.4L260.92-7.4Q260.92-5.65 262.02-4.65 263.12-3.65 265.22-3.65ZM270.52 0L270.52-3Q268.57 0.2 263.67 0.2L263.67 0.2Q260.07 0.2 257.9-1.88 255.72-3.95 255.72-7.15L255.72-7.15Q255.72-10.8 258.47-12.83 261.22-14.85 266.17-14.85L266.17-14.85 270.37-14.85 270.37-16.3Q270.37-18.9 269.12-20.23 267.87-21.55 264.97-21.55L264.97-21.55Q260.92-21.55 257.62-19.3L257.62-19.3 257.62-24.05Q260.57-25.75 265.42-25.75L265.42-25.75Q275.37-25.75 275.37-16.1L275.37-16.1 275.37 0 270.52 0ZM286.87-13.5L286.87 0 281.97 0 281.97-25.35 286.87-25.35 286.87-20.9Q288.72-25.6 293.52-25.6L293.52-25.6Q294.22-25.6 295.07-25.45L295.07-25.45 295.07-20.65Q294.02-21.1 292.72-21.1L292.72-21.1Q290.17-21.1 288.52-18.85 286.87-16.6 286.87-13.5L286.87-13.5ZM333.77-17.05L333.77 0 328.87 0 328.87-16Q328.87-21.45 324.47-21.45L324.47-21.45Q322.27-21.45 320.54-19.5 318.82-17.55 318.82-13.75L318.82-13.75 318.82 0 313.92 0 313.92-16Q313.92-21.45 309.47-21.45L309.47-21.45Q307.32-21.45 305.57-19.5 303.82-17.55 303.82-13.75L303.82-13.75 303.82 0 298.92 0 298.92-25.35 303.82-25.35 303.82-21.3Q305.97-25.7 310.97-25.7L310.97-25.7Q316.67-25.7 318.27-20.8L318.27-20.8Q319.32-23.15 321.32-24.43 323.32-25.7 325.82-25.7L325.82-25.7Q329.72-25.7 331.74-23.4 333.77-21.1 333.77-17.05L333.77-17.05ZM348.62-3.65L348.62-3.65Q351.02-3.65 352.39-4.98 353.77-6.3 353.77-8.45L353.77-8.45 353.77-11.3 349.97-11.3Q347.17-11.3 345.74-10.2 344.32-9.1 344.32-7.4L344.32-7.4Q344.32-5.65 345.42-4.65 346.52-3.65 348.62-3.65ZM353.92 0L353.92-3Q351.97 0.2 347.07 0.2L347.07 0.2Q343.47 0.2 341.29-1.88 339.12-3.95 339.12-7.15L339.12-7.15Q339.12-10.8 341.87-12.83 344.62-14.85 349.57-14.85L349.57-14.85 353.77-14.85 353.77-16.3Q353.77-18.9 352.52-20.23 351.27-21.55 348.37-21.55L348.37-21.55Q344.32-21.55 341.02-19.3L341.02-19.3 341.02-24.05Q343.97-25.75 348.82-25.75L348.82-25.75Q358.77-25.75 358.77-16.1L358.77-16.1 358.77 0 353.92 0ZM383.26-5.4L383.26-1Q380.81 0.5 377.01 0.5L377.01 0.5Q371.06 0.5 367.51-3.25 363.96-7 363.96-12.6L363.96-12.6Q363.96-18.05 367.54-21.93 371.11-25.8 377.21-25.8L377.21-25.8Q380.51-25.8 383.26-24.4L383.26-24.4 383.26-19.9Q380.81-21.45 377.71-21.45L377.71-21.45Q373.76-21.45 371.39-18.95 369.01-16.45 369.01-12.55L369.01-12.55Q369.11-8.7 371.36-6.23 373.61-3.75 377.66-3.75L377.66-3.75Q380.66-3.75 383.26-5.4L383.26-5.4ZM410.01-25.35L400.86-0.7Q397.21 9.05 389.71 9.05L389.71 9.05Q388.36 9.05 387.41 8.8L387.41 8.8 387.41 4.6Q388.21 4.8 389.11 4.8L389.11 4.8Q393.96 4.8 395.91-0.55L395.91-0.55 385.81-25.35 391.26-25.35 394.41-17.1 398.36-6.4Q398.81-7.9 401.96-17.1L401.96-17.1 404.81-25.35 410.01-25.35Z" opacity="1" transform="matrix(1,0,0,1,0,0)" fill="#000000" class="undefined-text-0" data-fill-palette-color="primary" id="text-0"></path></svg></g></svg></g></svg></g></svg></g><g transform="matrix(1,0,0,1,250.83509535962486,0)"><svg viewBox="0 0 50.70727514408653 37.487767782415695" height="37.487767782415695" width="50.70727514408653"><g><svg xmlns="http://www.w3.org/2000/svg" xmlns:xlink="http://www.w3.org/1999/xlink" version="1.1" x="0" y="0" viewBox="7.896 18.437 83.99999999999999 62.101" enable-background="new 0 0 100 100" xml:space="preserve" height="37.487767782415695" width="50.70727514408653" class="icon-icon-0" data-fill-palette-color="accent" id="icon-0"><g fill="#001f3f" data-fill-palette-color="accent"><path d="M89.774 36.738l-5.933 3.479-0.036 2.549-7.827 9.025c-0.668 0.769-0.584 1.932 0.186 2.6 0.767 0.668 1.931 0.585 2.597-0.184l4.965-5.721-0.12 8.373c0 0.983 0.668 1.808 1.573 2.05-0.018 0.102-0.026 0.208-0.026 0.316v17.813l-2.501 0.591c-1.094 0-1.979 0.888-1.979 1.98 0 1.094 0.885 0.918 1.979 0.918h4.275c0.064 0.007 0.134 0.011 0.204 0.011 1.092 0 1.978-0.887 1.978-1.98V59.225c0-0.094-0.009-0.186-0.021-0.277 0.993-0.177 1.747-1.042 1.747-2.088l1.061-18C91.893 37.688 90.944 36.738 89.774 36.738z" fill="#000000" data-fill-palette-color="accent"></path><circle cx="87.129" cy="32.018" r="4.1" fill="#000000" data-fill-palette-color="accent"></circle></g><g fill="#001f3f" data-fill-palette-color="accent"><g fill="#001f3f" data-fill-palette-color="accent"><path d="M59.327 75.076l-2.21 2.694 0.639 0.679c0.495 0.526 1.322 0.552 1.851 0.057l0.609-0.573c0.527-0.497 0.554-1.324 0.057-1.851L59.327 75.076z" fill="#000000" data-fill-palette-color="accent"></path><polygon points="58.18,73.854 55.969,76.549 56.538,77.155 58.749,74.46   " fill="#000000" data-fill-palette-color="accent"></polygon><polygon points="57.101,72.708 54.891,75.403 55.389,75.933 57.6,73.238   " fill="#000000" data-fill-palette-color="accent"></polygon><g fill="#001f3f" data-fill-palette-color="accent"><path d="M48.72 63.8c-0.292-0.312-0.7-0.444-1.093-0.404-0.05-0.005-0.099-0.009-0.149-0.009h-0.333-2.187H32.037l-1.106-7.079-0.193-1.237 6.492-1.016 5.271-0.823c0.576-0.09 0.971-0.631 0.881-1.208l-0.105-0.668c-0.089-0.576-0.63-0.971-1.208-0.881l-11.763 1.837-0.593-3.805c-0.112-0.715-0.782-1.202-1.497-1.091l-0.827 0.128c-0.715 0.112-1.202 0.78-1.091 1.495l1.034 6.619c-3.877 2.351-6.468 6.608-6.468 11.473 0 7.404 6.002 13.405 13.406 13.405 7.208 0 13.085-5.687 13.394-12.817l6.649 7.068 2.211-2.693L48.72 63.8zM34.27 78.457c-6.254 0-11.325-5.071-11.325-11.326 0-3.797 1.872-7.157 4.741-9.211l1.216 7.78c0.106 0.681 0.719 1.154 1.394 1.102 0.104 0.025 0.21 0.042 0.321 0.042h14.974c0.003 0.097 0.007 0.191 0.007 0.289C45.596 73.386 40.523 78.457 34.27 78.457z" fill="#000000" data-fill-palette-color="accent"></path><circle cx="26.869" cy="42.126" r="4.1" fill="#000000" data-fill-palette-color="accent"></circle></g></g><g fill="#001f3f" data-fill-palette-color="accent"><path d="M7.896 38.861l1.061 18c0 1.044 0.755 1.911 1.748 2.088-0.012 0.092-0.021 0.184-0.021 0.278v19.331c0 1.092 0.885 1.979 1.978 1.979 0.07 0 0.137-0.006 0.204-0.012h4.274c1.092 0 1.978 0.176 1.978-0.918 0-1.092-0.885-1.979-1.978-1.979l-2.5-0.593v-17.81c0-0.108-0.011-0.214-0.027-0.319 0.905-0.241 1.575-1.064 1.575-2.049l-0.12-8.373 4.964 5.723c0.666 0.77 1.83 0.852 2.6 0.185 0.768-0.667 0.851-1.83 0.184-2.6l-7.83-9.026-0.036-2.549-5.931-3.479C8.846 36.739 7.896 37.689 7.896 38.861z" fill="#000000" data-fill-palette-color="accent"></path><circle cx="12.662" cy="32.019" r="4.1" fill="#000000" data-fill-palette-color="accent"></circle></g></g><g fill="#001f3f" data-fill-palette-color="accent"><path d="M67.21 56.654h9.008c0.218 0 0.396-0.177 0.396-0.397 0-0.22-0.178-0.397-0.396-0.397H67.21c-0.219 0-0.396 0.178-0.396 0.397C66.812 56.476 66.989 56.654 67.21 56.654z" fill="#000000" data-fill-palette-color="accent"></path><path d="M66.505 56.325c0.17-0.138 0.197-0.389 0.059-0.56L60.9 48.76c-0.138-0.17-0.389-0.195-0.559-0.058s-0.197 0.389-0.058 0.559l5.663 7.006C66.085 56.436 66.335 56.464 66.505 56.325z" fill="#000000" data-fill-palette-color="accent"></path><path d="M75.965 57.191h-9.14c-1.15 0-2.084 0.933-2.084 2.085v18.616c0 1.151 0.932 2.086 2.084 2.086h9.14c1.15 0 2.085-0.933 2.085-2.086V59.276C78.05 58.125 77.117 57.191 75.965 57.191z" fill="#000000" data-fill-palette-color="accent"></path></g><polygon points="72.9,21 72.9,18.437 70.526,18.437 70.526,21 67.963,21 67.963,23.374 70.526,23.374 70.526,25.937 72.9,25.937   72.9,23.374 75.463,23.374 75.463,21 " fill="#000000" data-fill-palette-color="accent"></polygon></svg><g></g></g></svg></g></svg></g></svg></g></svg></g><path d="M218.655 102.406L218.655 36.828 392.199 36.828 392.199 210.372 218.655 210.372 218.655 144.794 220.638 144.794 220.638 208.389 390.216 208.389 390.216 38.811 220.638 38.811 220.638 102.406Z" fill="#000000" stroke="transparent" data-fill-palette-color="primary"></path></svg></g><defs></defs></svg><rect width="395.52" height="247.2" fill="none" stroke="none" visibility="hidden"></rect></g></svg></g></svg>